# xmcd
#
# Track frame offsets: 
#        150
#        26019
#        50841
#        73246
#        104772
#        132014
#        157056
#        180031
#        200254
#        229021
#        263232
#        290201
#
# Disc length: 4071 seconds
#
# Revision: 1
# Processed by: cddbd v1.5.2PL0 Copyright (c) Steve Scherf et al.
# Submitted via: ExactAudioCopy v0.95b4
#
DISCID=b40fe50c
DTITLE=Kenny Burrell - Blue Muse
DYEAR=2003
DGENRE=Jazz
TTITLE0=Mark I
TTITLE1=My Friend Ray
TTITLE2=On Wings of the Spirit
TTITLE3=Then I Met You
TTITLE4=It's No Time To Be Blue
TTITLE5=Blue In Green
TTITLE6=Blue Muse
TTITLE7=Solitude
TTITLE8=3/4 of the House
TTITLE9='Round Midnight
TTITLE10=Habiba
TTITLE11=Blue Guitar Blues
EXTD=YEAR: 2003
EXTT0=
EXTT1=
EXTT2=
EXTT3=
EXTT4=
EXTT5=
EXTT6=
EXTT7=
EXTT8=
EXTT9=
EXTT10=
EXTT11=
PLAYORDER=
